<?xml version="1.0" encoding="utf-8"?>
<!-- Generator: Adobe Illustrator 21.0.2, SVG Export Plug-In . SVG Version: 6.00 Build 0)  -->
<svg version="1.1" id="Layer_1" xmlns="http://www.w3.org/2000/svg" xmlns:xlink="http://www.w3.org/1999/xlink" x="0px" y="0px"
	 viewBox="0 0 291.6 90.7" style="enable-background:new 0 0 291.6 90.7;" xml:space="preserve">
<style type="text/css">
	.st0{fill:#434345;stroke:#434345;}
	.st1{fill:#434345;}
</style>
<g id="Layer_2">
</g>
<g id="Layer_2_copy">
	<g>
		<path class="st0" d="M117.4,31.3h-14.6l7.3-20.6L117.4,31.3z M126.2,43.7l-14.3-39h-3.5l-14.3,39h4.4l3.1-8.8h17l3.1,8.8H126.2z
			 M165,43.7v-39h-4.2l-12.4,27.6L135.8,4.7h-4.2v39h4.2V14.1l10.8,23.5h3.6l10.7-23.5v29.6C160.9,43.7,165,43.7,165,43.7z
			 M204.5,43.7l-14-23.9l12.3-15.1h-5.1l-18.2,22.4V4.7h-4.2v39h4.2V32.8l8.2-9.9l11.9,20.8H204.5z M90.1,30.2v-2
			c0-8.7-4.5-14.2-12-14.2s-12,5.5-12,15c0,10.4,5.1,15,12.8,15c5,0,7.8-1.6,10.7-4.5l-2.9-2.6c-2.3,2.3-4.3,3.3-7.7,3.3
			c-5.6,0-8.7-3.7-8.7-10.1L90.1,30.2L90.1,30.2z M85.8,26.9H70.3c0.1-2.4,0.2-3.3,0.9-4.9c1.1-2.7,3.8-4.4,6.9-4.4s5.7,1.7,6.9,4.4
			C85.5,23.7,85.6,24.5,85.8,26.9z M60.1,33c0-3.2-1.1-5.9-3.3-7.7c-1.6-1.4-3.5-2.2-7.1-2.7l-4.3-0.7c-2-0.3-4.1-1.1-5.3-2.1
			c-1.2-1-1.8-2.6-1.8-4.5c0-4.3,3-7.2,8.2-7.2c4.1,0,6.7,1.1,9.1,3.3l2.7-2.7c-3.3-3-6.6-4.3-11.6-4.3c-7.7,0-12.5,4.4-12.5,11
			c0,3.1,1,5.5,3,7.3c1.7,1.5,4.1,2.5,7.2,3l4.5,0.7c2.8,0.4,3.8,0.8,5.1,1.9c1.3,1.1,1.9,2.8,1.9,4.9c0,4.5-3.5,7.2-9.2,7.2
			c-4.4,0-7.4-1-10.6-4.3l-2.8,2.8C37,42.6,40.8,44,46.7,44C54.7,44.1,60.1,39.8,60.1,33z"/>
		<g>
			<path class="st1" d="M211.1,34.3c2.5-15.5,18.4-29.9,36.7-30.4c-3.1,0.3-6.2,1.3-8.8,3c-11,7.8-13.1,22.6-23.6,30.9
				c-1,0.8-2.2,1.5-3.4,2C211,38.3,210.8,36,211.1,34.3z"/>
			<path class="st1" d="M218.8,43.7c-1.8,0-3.4-0.6-4.8-1.6c2.9-0.3,5.5-1.7,7.9-3.4c10.4-8.3,12.6-23.1,23.6-30.9
				c3.3-2.1,7.2-3.2,11.2-3.1v18.7c0,10.7-9.1,20.3-17.8,20.3H218.8z"/>
		</g>
	</g>
	<g>
		<path class="st1" d="M240.9,83.7h-1c-0.3,1.2-1.1,1.9-2.3,1.9c-0.6,0-1.2-0.2-1.6-0.7c-0.6-0.6-0.7-1.3-0.7-3.3s0.1-2.7,0.7-3.3
			c0.4-0.4,1-0.7,1.6-0.7c1.2,0,2,0.8,2.3,1.9h1c-0.3-1.8-1.6-2.8-3.3-2.8c-0.9,0-1.8,0.3-2.4,1c-0.9,0.9-0.9,1.8-0.9,3.9
			c0,2,0,3,0.9,3.9c0.6,0.6,1.5,1,2.4,1C239.3,86.6,240.6,85.5,240.9,83.7z"/>
		<rect x="243.2" y="77" class="st1" width="1" height="9.5"/>
		<polygon class="st1" points="252.9,86.5 252.9,85.6 248,85.6 248,82.1 252.2,82.1 252.2,81.2 248,81.2 248,77.9 252.9,77.9 
			252.9,77 247,77 247,86.5 		"/>
		<polygon class="st1" points="262.1,86.5 262.1,77 261,77 261,84.6 256,77 255,77 255,86.5 256,86.5 256,78.8 261.1,86.5 		"/>
		<path class="st1" d="M271.1,83.7h-1c-0.3,1.2-1.1,1.9-2.3,1.9c-0.6,0-1.2-0.2-1.7-0.7c-0.6-0.6-0.7-1.3-0.7-3.3s0.1-2.7,0.7-3.3
			c0.4-0.4,1-0.7,1.7-0.7c1.2,0,2,0.8,2.3,1.9h1c-0.3-1.8-1.6-2.8-3.3-2.8c-0.9,0-1.8,0.3-2.4,1c-0.9,0.9-0.9,1.8-0.9,3.9
			c0,2,0,3,0.9,3.9c0.6,0.6,1.5,1,2.4,1C269.5,86.6,270.8,85.5,271.1,83.7z"/>
		<polygon class="st1" points="279.3,86.5 279.3,85.6 274.4,85.6 274.4,82.1 278.6,82.1 278.6,81.2 274.4,81.2 274.4,77.9 
			279.3,77.9 279.3,77 273.4,77 273.4,86.5 		"/>
		<path class="st1" d="M287.1,83.9c0-0.8-0.3-1.4-0.8-1.9c-0.4-0.3-0.8-0.5-1.7-0.7l-1-0.2c-0.5-0.1-1-0.3-1.3-0.5
			c-0.3-0.3-0.4-0.6-0.4-1.1c0-1.1,0.7-1.8,2-1.8c1,0,1.6,0.3,2.2,0.8l0.7-0.7c-0.8-0.7-1.6-1-2.8-1c-1.9,0-3.1,1.1-3.1,2.7
			c0,0.8,0.2,1.4,0.7,1.8c0.4,0.4,1,0.6,1.8,0.7l1.1,0.2c0.7,0.1,0.9,0.2,1.2,0.5c0.3,0.3,0.5,0.7,0.5,1.2c0,1.1-0.9,1.8-2.2,1.8
			c-1.1,0-1.8-0.3-2.6-1l-0.7,0.7c0.9,0.9,1.8,1.3,3.3,1.3C285.8,86.6,287.1,85.6,287.1,83.9z"/>
		<g>
			<path class="st1" d="M10.7,83.9c0-0.8-0.3-1.4-0.8-1.9c-0.4-0.3-0.8-0.5-1.7-0.7l-1-0.2c-0.5-0.1-1-0.3-1.3-0.5
				c-0.3-0.3-0.4-0.6-0.4-1.1c0-1.1,0.7-1.8,2-1.8c1,0,1.6,0.3,2.2,0.8l0.7-0.7c-0.8-0.7-1.6-1-2.8-1c-1.9,0-3.1,1.1-3.1,2.7
				c0,0.8,0.2,1.4,0.7,1.8c0.4,0.4,1,0.6,1.8,0.7l1.1,0.2c0.7,0.1,0.9,0.2,1.2,0.5s0.5,0.7,0.5,1.2c0,1.1-0.9,1.8-2.2,1.8
				c-1.1,0-1.8-0.3-2.6-1l-0.7,0.7c0.9,0.9,1.8,1.3,3.3,1.3C9.4,86.6,10.7,85.6,10.7,83.9z"/>
			<polygon class="st1" points="18.7,86.5 18.7,85.6 13.8,85.6 13.8,82.1 18,82.1 18,81.2 13.8,81.2 13.8,77.9 18.7,77.9 18.7,77 
				12.8,77 12.8,86.5 			"/>
			<rect x="20.9" y="77" class="st1" width="1" height="9.5"/>
			<polygon class="st1" points="31.7,86.5 31.7,77 30.7,77 30.7,84.6 25.6,77 24.6,77 24.6,86.5 25.7,86.5 25.7,78.8 30.7,86.5 			
				"/>
			<path class="st1" d="M39,83.5h-3.6l1.8-5L39,83.5z M41.1,86.5L37.6,77h-0.9l-3.5,9.5h1.1l0.8-2.2h4.2l0.8,2.2H41.1z M36.2,75.9
				v-1.2h-1v1.2H36.2z M39,75.9v-1.2h-1v1.2H39z"/>
			<path class="st1" d="M46.7,83.6V77h-1v6.5c0,1.4-0.7,2.2-2,2.2c-0.8,0-1.2-0.3-1.5-0.6l-0.7,0.7c0.6,0.6,1.3,0.9,2.2,0.9
				C45.5,86.6,46.7,85.4,46.7,83.6z"/>
			<path class="st1" d="M54.6,81.7c0,2-0.1,2.6-0.7,3.3c-0.4,0.4-1,0.7-1.6,0.7s-1.2-0.3-1.6-0.7c-0.6-0.6-0.7-1.3-0.7-3.3
				s0.1-2.6,0.7-3.3c0.4-0.4,1-0.7,1.6-0.7s1.2,0.3,1.6,0.7C54.6,79.1,54.6,79.7,54.6,81.7z M55.7,81.7c0-2,0-3-0.9-3.9
				c-0.6-0.6-1.5-1-2.4-1c-1,0-1.8,0.3-2.4,1c-0.9,0.9-0.9,1.8-0.9,3.9c0,2,0,3,0.9,3.9c0.6,0.6,1.5,1,2.4,1c1,0,1.8-0.3,2.4-1
				C55.7,84.7,55.7,83.8,55.7,81.7z"/>
			<polygon class="st1" points="65.2,86.5 61.8,80.6 64.8,77 63.5,77 59.1,82.4 59.1,77 58.1,77 58.1,86.5 59.1,86.5 59.1,83.8 
				61.1,81.4 64,86.5 			"/>
			<rect x="66.8" y="77" class="st1" width="1" height="9.5"/>
			<path class="st1" d="M80.4,83.3v-6.4h-1v6.3c0,1.4-0.9,2.4-2.3,2.4s-2.3-1-2.3-2.4v-6.3h-1v6.4c0,1.9,1.4,3.2,3.3,3.2
				C79,86.6,80.4,85.3,80.4,83.3z"/>
			<polygon class="st1" points="90.1,86.5 90.1,77 89.1,77 89.1,84.6 84,77 83,77 83,86.5 84.1,86.5 84.1,78.8 89.1,86.5 			"/>
			<rect x="92.9" y="77" class="st1" width="1" height="9.5"/>
			<polygon class="st1" points="102.5,77 101.4,77 98.9,84.7 96.4,77 95.4,77 98.5,86.5 99.3,86.5 			"/>
			<polygon class="st1" points="109.9,86.5 109.9,85.6 105,85.6 105,82.1 109.2,82.1 109.2,81.2 105,81.2 105,77.9 109.9,77.9 
				109.9,77 104,77 104,86.5 			"/>
			<path class="st1" d="M117.5,79.6c0,1.2-0.8,1.7-1.9,1.7h-2.5v-3.4h2.5C116.7,77.9,117.5,78.5,117.5,79.6z M118.7,86.5l-2.3-4.3
				c1.2-0.3,2.1-1.2,2.1-2.6c0-1.6-1.2-2.7-2.8-2.7H112v9.5h1v-4.2h2.3l2.2,4.2L118.7,86.5L118.7,86.5z"/>
			<path class="st1" d="M126.5,83.9c0-0.8-0.3-1.4-0.8-1.9c-0.4-0.3-0.8-0.5-1.7-0.7l-1-0.2c-0.5-0.1-1-0.3-1.3-0.5
				c-0.3-0.3-0.4-0.6-0.4-1.1c0-1.1,0.7-1.8,2-1.8c1,0,1.6,0.3,2.2,0.8l0.7-0.7c-0.8-0.7-1.6-1-2.8-1c-1.9,0-3.1,1.1-3.1,2.7
				c0,0.8,0.2,1.4,0.7,1.8c0.4,0.4,1,0.6,1.8,0.7l1.1,0.2c0.7,0.1,0.9,0.2,1.2,0.5s0.5,0.7,0.5,1.2c0,1.1-0.9,1.8-2.3,1.8
				c-1.1,0-1.8-0.3-2.6-1l-0.7,0.7c0.9,0.9,1.8,1.3,3.3,1.3C125.2,86.6,126.5,85.6,126.5,83.9z"/>
			<rect x="128.7" y="77" class="st1" width="1" height="9.5"/>
			<polygon class="st1" points="138,77.9 138,77 131.5,77 131.5,77.9 134.2,77.9 134.2,86.5 135.2,86.5 135.2,77.9 			"/>
			<polygon class="st1" points="145.2,77 144.1,77 141.9,81.5 139.6,77 138.5,77 141.4,82.6 141.4,86.5 142.4,86.5 142.4,82.6 			
				"/>
			<path class="st1" d="M155.3,81.7c0,2-0.1,2.6-0.7,3.3c-0.4,0.4-1,0.7-1.6,0.7s-1.2-0.3-1.7-0.7c-0.6-0.6-0.7-1.3-0.7-3.3
				s0.1-2.6,0.7-3.3c0.4-0.4,1-0.7,1.7-0.7c0.6,0,1.2,0.3,1.6,0.7C155.2,79.1,155.3,79.7,155.3,81.7z M156.3,81.7c0-2,0-3-0.9-3.9
				c-0.6-0.6-1.5-1-2.4-1c-1,0-1.8,0.3-2.4,1c-0.9,0.9-0.9,1.8-0.9,3.9c0,2,0,3,0.9,3.9c0.6,0.6,1.5,1,2.4,1c1,0,1.8-0.3,2.4-1
				C156.3,84.7,156.3,83.8,156.3,81.7z"/>
			<polygon class="st1" points="164.6,77.9 164.6,77 158.7,77 158.7,86.5 159.7,86.5 159.7,82.3 163.9,82.3 163.9,81.4 159.7,81.4 
				159.7,77.9 			"/>
			<path class="st1" d="M174.3,83.5h-3.6l1.8-5L174.3,83.5z M176.5,86.5L173,77h-0.9l-3.5,9.5h1.1l0.8-2.2h4.2l0.8,2.2H176.5z"/>
			<path class="st1" d="M183.5,79.8c0,1.3-0.8,1.9-2,1.9h-2.4v-3.8h2.4C182.7,77.9,183.5,78.5,183.5,79.8z M184.5,79.8
				c0-1.7-1.2-2.8-3-2.8H178v9.5h1v-3.9h2.5C183.3,82.6,184.5,81.5,184.5,79.8z"/>
			<path class="st1" d="M191.9,79.8c0,1.3-0.8,1.9-2,1.9h-2.4v-3.8h2.4C191.1,77.9,191.9,78.5,191.9,79.8z M193,79.8
				c0-1.7-1.2-2.8-3-2.8h-3.5v9.5h1v-3.9h2.5C191.8,82.6,193,81.5,193,79.8z"/>
			<polygon class="st1" points="200.8,86.5 200.8,85.6 195.9,85.6 195.9,77 194.9,77 194.9,86.5 			"/>
			<rect x="202.6" y="77" class="st1" width="1" height="9.5"/>
			<polygon class="st1" points="212.3,86.5 212.3,85.6 207.4,85.6 207.4,82.1 211.6,82.1 211.6,81.2 207.4,81.2 207.4,77.9 
				212.3,77.9 212.3,77 206.4,77 206.4,86.5 			"/>
			<path class="st1" d="M220,81.6c0,1.2,0,2.6-0.6,3.3c-0.5,0.5-1.1,0.7-1.9,0.7h-2.1v-7.7h2.1c0.7,0,1.4,0.2,1.9,0.7
				C220,79.2,220,80.5,220,81.6z M221,81.6c0-1.3,0.1-2.8-0.9-3.8c-0.6-0.6-1.4-0.9-2.4-0.9h-3.3v9.5h3.3c1,0,1.8-0.3,2.4-0.9
				C221.1,84.6,221,82.9,221,81.6z"/>
			<path class="st1" d="M232.5,83.9c0-0.8-0.3-1.4-0.8-1.9c-0.4-0.3-0.8-0.5-1.7-0.7l-1-0.2c-0.5-0.1-1-0.3-1.3-0.5
				c-0.3-0.3-0.4-0.6-0.4-1.1c0-1.1,0.7-1.8,2-1.8c1,0,1.6,0.3,2.2,0.8l0.7-0.7c-0.8-0.7-1.6-1-2.8-1c-1.9,0-3.1,1.1-3.1,2.7
				c0,0.8,0.2,1.4,0.7,1.8c0.4,0.4,1,0.6,1.8,0.7l1.1,0.2c0.7,0.1,0.9,0.2,1.2,0.5c0.3,0.3,0.5,0.7,0.5,1.2c0,1.1-0.9,1.8-2.2,1.8
				c-1.1,0-1.8-0.3-2.6-1l-0.7,0.7c0.9,0.9,1.8,1.3,3.3,1.3C231.2,86.6,232.5,85.6,232.5,83.9z"/>
			<path class="st1" d="M40.8,65.1c0-0.8-0.3-1.4-0.8-1.9c-0.4-0.3-0.8-0.5-1.7-0.7l-1-0.2c-0.5-0.1-1-0.3-1.3-0.5
				c-0.3-0.3-0.4-0.6-0.4-1.1c0-1.1,0.7-1.8,2-1.8c1,0,1.6,0.3,2.2,0.8l0.7-0.7c-0.8-0.7-1.6-1-2.8-1c-1.9,0-3.1,1.1-3.1,2.7
				c0,0.8,0.2,1.4,0.7,1.8c0.4,0.4,1,0.6,1.8,0.7l1.1,0.2c0.7,0.1,0.9,0.2,1.2,0.5c0.3,0.3,0.5,0.7,0.5,1.2c0,1.1-0.9,1.8-2.3,1.8
				c-1.1,0-1.8-0.3-2.6-1l-0.7,0.7c0.9,0.9,1.8,1.3,3.3,1.3C39.5,67.8,40.8,66.7,40.8,65.1z"/>
			<polygon class="st1" points="48.9,67.7 48.9,66.8 44,66.8 44,63.3 48.1,63.3 48.1,62.4 44,62.4 44,59 48.9,59 48.9,58.1 
				42.9,58.1 42.9,67.7 			"/>
			<rect x="51" y="58.1" class="st1" width="1" height="9.5"/>
			<polygon class="st1" points="61.8,67.7 61.8,58.1 60.8,58.1 60.8,65.8 55.7,58.1 54.8,58.1 54.8,67.7 55.8,67.7 55.8,60 
				60.8,67.7 			"/>
			<path class="st1" d="M69.1,64.6h-3.6l1.8-5L69.1,64.6z M71.2,67.7l-3.5-9.5h-0.9l-3.5,9.5h1.1l0.8-2.2h4.2l0.8,2.2H71.2z
				 M66.3,57.1v-1.2h-1v1.2H66.3z M69.1,57.1v-1.2h-1v1.2H69.1z"/>
			<path class="st1" d="M76.8,64.8v-6.6h-1v6.5c0,1.4-0.7,2.2-2,2.2c-0.8,0-1.2-0.3-1.5-0.6L71.6,67c0.6,0.6,1.3,0.9,2.2,0.9
				C75.6,67.8,76.8,66.6,76.8,64.8z"/>
			<path class="st1" d="M84.8,62.9c0,2-0.1,2.6-0.7,3.3c-0.4,0.4-1,0.7-1.6,0.7s-1.2-0.3-1.6-0.7c-0.6-0.6-0.7-1.3-0.7-3.3
				s0.1-2.6,0.7-3.3c0.4-0.4,1-0.7,1.6-0.7s1.2,0.3,1.6,0.7C84.7,60.3,84.8,60.9,84.8,62.9z M85.8,62.9c0-2,0-3-0.9-3.9
				c-0.6-0.6-1.5-1-2.4-1c-1,0-1.8,0.4-2.4,1c-0.9,0.9-0.9,1.8-0.9,3.9c0,2,0,3,0.9,3.9c0.6,0.6,1.5,1,2.4,1c1,0,1.8-0.3,2.4-1
				C85.8,65.9,85.8,64.9,85.8,62.9z"/>
			<polygon class="st1" points="94.1,67.7 94.1,66.8 89.2,66.8 89.2,63.3 93.4,63.3 93.4,62.4 89.2,62.4 89.2,59 94.1,59 94.1,58.1 
				88.2,58.1 88.2,67.7 			"/>
			<polygon class="st1" points="103.3,67.7 103.3,58.1 102.3,58.1 102.3,65.8 97.2,58.1 96.2,58.1 96.2,67.7 97.2,67.7 97.2,60 
				102.3,67.7 			"/>
			<path class="st1" d="M113.9,64.6h-3.6l1.8-5L113.9,64.6z M116,67.7l-3.5-9.5h-0.9l-3.5,9.5h1.1l0.8-2.2h4.2l0.8,2.2H116z"/>
			<polygon class="st1" points="125.7,67.7 125.7,58.1 124.7,58.1 121.7,64.9 118.6,58.1 117.6,58.1 117.6,67.7 118.6,67.7 
				118.6,60.4 121.2,66.2 122.1,66.2 124.7,60.4 124.7,67.7 			"/>
			<polygon class="st1" points="136.7,67.7 136.7,58.1 135.7,58.1 132.6,64.9 129.5,58.1 128.5,58.1 128.5,67.7 129.5,67.7 
				129.5,60.4 132.2,66.2 133,66.2 135.7,60.4 135.7,67.7 			"/>
			<path class="st1" d="M143.9,64.6h-3.6l1.8-5L143.9,64.6z M146.1,67.7l-3.5-9.5h-0.9l-3.5,9.5h1.1l0.8-2.2h4.2l0.8,2.2H146.1z"/>
			<polygon class="st1" points="152.4,59 152.4,58.1 145.8,58.1 145.8,59 148.6,59 148.6,67.7 149.6,67.7 149.6,59 			"/>
			<polygon class="st1" points="159.7,59 159.7,58.1 153.2,58.1 153.2,59 155.9,59 155.9,67.7 157,67.7 157,59 			"/>
			<rect x="161.5" y="58.1" class="st1" width="1" height="9.5"/>
			<polygon class="st1" points="172.4,67.7 169,61.8 172,58.1 170.8,58.1 166.3,63.6 166.3,58.1 165.3,58.1 165.3,67.7 166.3,67.7 
				166.3,65 168.3,62.6 171.2,67.7 			"/>
			<path class="st1" d="M179.2,62.9c0,2-0.1,2.6-0.7,3.3c-0.4,0.4-1,0.7-1.6,0.7s-1.2-0.3-1.7-0.7c-0.6-0.6-0.7-1.3-0.7-3.3
				s0.1-2.6,0.7-3.3c0.4-0.4,1-0.7,1.7-0.7c0.6,0,1.2,0.3,1.6,0.7C179.1,60.3,179.2,60.9,179.2,62.9z M180.2,62.9c0-2,0-3-0.9-3.9
				c-0.6-0.6-1.5-1-2.4-1c-1,0-1.8,0.4-2.4,1c-1,0.9-1,1.9-1,3.9s0,3,0.9,3.9c0.6,0.6,1.5,1,2.4,1s1.8-0.3,2.4-1
				C180.2,65.9,180.2,64.9,180.2,62.9z"/>
			<path class="st1" d="M188,60.8c0,1.2-0.8,1.7-1.9,1.7h-2.5V59h2.5C187.3,59,188,59.6,188,60.8z M189.3,67.7l-2.3-4.3
				c1.2-0.3,2.1-1.2,2.1-2.6c0-1.7-1.2-2.7-2.8-2.7h-3.7v9.5h1v-4.2h2.3l2.2,4.2L189.3,67.7L189.3,67.7z"/>
			<polygon class="st1" points="198.5,67.7 195.1,61.8 198.1,58.1 196.8,58.1 192.4,63.6 192.4,58.1 191.4,58.1 191.4,67.7 
				192.4,67.7 192.4,65 194.4,62.6 197.3,67.7 			"/>
			<polygon class="st1" points="206,67.7 206,66.8 201.1,66.8 201.1,63.3 205.3,63.3 205.3,62.4 201.1,62.4 201.1,59 206,59 
				206,58.1 200.1,58.1 200.1,67.7 			"/>
			<path class="st1" d="M212.6,64.6H209l1.8-5L212.6,64.6z M214.8,67.7l-3.5-9.5h-0.9l-3.5,9.5h1.1l0.8-2.2h4.2l0.8,2.2H214.8z"/>
			<polygon class="st1" points="223.5,67.7 220,61.8 223,58.1 221.8,58.1 217.3,63.6 217.3,58.1 216.3,58.1 216.3,67.7 217.3,67.7 
				217.3,65 219.3,62.6 222.2,67.7 			"/>
			<path class="st1" d="M230.2,62.9c0,2-0.1,2.6-0.7,3.3c-0.4,0.4-1,0.7-1.6,0.7s-1.2-0.3-1.6-0.7c-0.6-0.6-0.7-1.3-0.7-3.3
				s0.1-2.6,0.7-3.3c0.4-0.4,1-0.7,1.6-0.7s1.2,0.3,1.6,0.7C230.1,60.3,230.2,60.9,230.2,62.9z M231.2,62.9c0-2,0-3-0.9-3.9
				c-0.6-0.6-1.5-1-2.4-1s-1.8,0.4-2.4,1c-1,0.9-1,1.9-1,3.9s0,3,0.9,3.9c0.6,0.6,1.5,1,2.4,1c1,0,1.8-0.3,2.4-1
				C231.2,65.9,231.2,64.9,231.2,62.9z"/>
		</g>
		<path class="st1" d="M240.1,64.5v-6.4h-1v6.3c0,1.4-0.9,2.4-2.3,2.4s-2.3-1-2.3-2.4v-6.3h-1v6.4c0,1.9,1.4,3.2,3.3,3.2
			C238.8,67.8,240.1,66.4,240.1,64.5z"/>
		<polygon class="st1" points="248.8,67.7 248.8,66.8 243.8,66.8 243.8,58.1 242.8,58.1 242.8,67.7 		"/>
		<path class="st1" d="M256.5,64.5v-6.4h-1v6.3c0,1.4-0.9,2.4-2.3,2.4s-2.3-1-2.3-2.4v-6.3h-1v6.4c0,1.9,1.4,3.2,3.3,3.2
			C255.1,67.8,256.5,66.4,256.5,64.5z"/>
	</g>
</g>
</svg>
